<svg width="256" height="256" viewBox="0 0 256 256" fill="none" xmlns="http://www.w3.org/2000/svg">
<path d="M118 128L12.3001 231.2C9.30014 234.1 9.20014 239 12.2001 242C15.1001 245 20.0001 245.1 23.0001 242.1L134 133.7C135.6 132.1 136.4 130.1 136.3 128C136.4 125.9 135.6 123.9 134 122.3L23.0001 13.7999C20.0001 10.8999 15.2001 10.8999 12.2001 13.8999C9.30014 16.8999 9.30014 21.6999 12.3001 24.6999L118 128Z" fill="white"/>
<path d="M138 128L243.7 24.7998C246.7 21.8998 246.8 16.9998 243.8 13.9998C240.9 10.9998 236 10.8998 233 13.8998L122 122.3C120.4 123.9 119.6 125.9 119.7 128C119.6 130.1 120.4 132.1 122 133.7L233 242.1C236 245 240.9 245 243.8 242C246.7 239 246.7 234.2 243.7 231.2L138 128Z" fill="white"/>
</svg>
